<svg id="visual" viewBox="0 0 960 540" width="960" height="540" xmlns="http://www.w3.org/2000/svg" xmlns:xlink="http://www.w3.org/1999/xlink" version="1.1"><path d="M0 218L16 221.8C32 225.7 64 233.3 96 254.5C128 275.7 160 310.3 192 305C224 299.7 256 254.3 288 236.7C320 219 352 229 384 246C416 263 448 287 480 291.8C512 296.7 544 282.3 576 291C608 299.7 640 331.3 672 320.2C704 309 736 255 768 243.7C800 232.3 832 263.7 864 261.7C896 259.7 928 224.3 944 206.7L960 189L960 0L944 0C928 0 896 0 864 0C832 0 800 0 768 0C736 0 704 0 672 0C640 0 608 0 576 0C544 0 512 0 480 0C448 0 416 0 384 0C352 0 320 0 288 0C256 0 224 0 192 0C160 0 128 0 96 0C64 0 32 0 16 0L0 0Z" fill="#c9b1f7" stroke-linecap="round" stroke-linejoin="miter"></path></svg>