<svg id="visual" viewBox="0 0 900 600" width="900" height="600" xmlns="http://www.w3.org/2000/svg" xmlns:xlink="http://www.w3.org/1999/xlink" version="1.1"><rect x="0" y="0" width="900" height="600" fill="#ffffff"></rect><path d="M0 392L15 412.3C30 432.7 60 473.3 90 490.2C120 507 150 500 180 480.5C210 461 240 429 270 419.2C300 409.3 330 421.7 360 434.5C390 447.3 420 460.7 450 465.7C480 470.7 510 467.3 540 463.2C570 459 600 454 630 454C660 454 690 459 720 455.5C750 452 780 440 810 429C840 418 870 408 885 403L900 398L900 0L885 0C870 0 840 0 810 0C780 0 750 0 720 0C690 0 660 0 630 0C600 0 570 0 540 0C510 0 480 0 450 0C420 0 390 0 360 0C330 0 300 0 270 0C240 0 210 0 180 0C150 0 120 0 90 0C60 0 30 0 15 0L0 0Z" fill="#b9a6e0"></path><path d="M0 349L15 362C30 375 60 401 90 412.8C120 424.7 150 422.3 180 423.3C210 424.3 240 428.7 270 421.3C300 414 330 395 360 388.2C390 381.3 420 386.7 450 388C480 389.3 510 386.7 540 376.2C570 365.7 600 347.3 630 348.8C660 350.3 690 371.7 720 372.8C750 374 780 355 810 359.3C840 363.7 870 391.3 885 405.2L900 419L900 0L885 0C870 0 840 0 810 0C780 0 750 0 720 0C690 0 660 0 630 0C600 0 570 0 540 0C510 0 480 0 450 0C420 0 390 0 360 0C330 0 300 0 270 0C240 0 210 0 180 0C150 0 120 0 90 0C60 0 30 0 15 0L0 0Z" fill="#a791d2"></path><path d="M0 364L15 358.2C30 352.3 60 340.7 90 344.7C120 348.7 150 368.3 180 374.2C210 380 240 372 270 358C300 344 330 324 360 322C390 320 420 336 450 340.5C480 345 510 338 540 331.3C570 324.7 600 318.3 630 316C660 313.7 690 315.3 720 321C750 326.7 780 336.3 810 333.7C840 331 870 316 885 308.5L900 301L900 0L885 0C870 0 840 0 810 0C780 0 750 0 720 0C690 0 660 0 630 0C600 0 570 0 540 0C510 0 480 0 450 0C420 0 390 0 360 0C330 0 300 0 270 0C240 0 210 0 180 0C150 0 120 0 90 0C60 0 30 0 15 0L0 0Z" fill="#957dc3"></path><path d="M0 244L15 246.2C30 248.3 60 252.7 90 256.8C120 261 150 265 180 269.7C210 274.3 240 279.7 270 270.3C300 261 330 237 360 240.5C390 244 420 275 450 274.7C480 274.3 510 242.7 540 239.5C570 236.3 600 261.7 630 272.7C660 283.7 690 280.3 720 274.2C750 268 780 259 810 260.3C840 261.7 870 273.3 885 279.2L900 285L900 0L885 0C870 0 840 0 810 0C780 0 750 0 720 0C690 0 660 0 630 0C600 0 570 0 540 0C510 0 480 0 450 0C420 0 390 0 360 0C330 0 300 0 270 0C240 0 210 0 180 0C150 0 120 0 90 0C60 0 30 0 15 0L0 0Z" fill="#8369b5"></path><path d="M0 204L15 196.7C30 189.3 60 174.7 90 167.3C120 160 150 160 180 160.5C210 161 240 162 270 172.5C300 183 330 203 360 203.8C390 204.7 420 186.3 450 180.3C480 174.3 510 180.7 540 182.3C570 184 600 181 630 177C660 173 690 168 720 169.3C750 170.7 780 178.3 810 192.3C840 206.3 870 226.7 885 236.8L900 247L900 0L885 0C870 0 840 0 810 0C780 0 750 0 720 0C690 0 660 0 630 0C600 0 570 0 540 0C510 0 480 0 450 0C420 0 390 0 360 0C330 0 300 0 270 0C240 0 210 0 180 0C150 0 120 0 90 0C60 0 30 0 15 0L0 0Z" fill="#7155a7"></path><path d="M0 170L15 169.2C30 168.3 60 166.7 90 155.5C120 144.3 150 123.7 180 126C210 128.3 240 153.7 270 159.5C300 165.3 330 151.7 360 143.7C390 135.7 420 133.3 450 135.5C480 137.7 510 144.3 540 138.7C570 133 600 115 630 119.5C660 124 690 151 720 159.3C750 167.7 780 157.3 810 144.5C840 131.7 870 116.3 885 108.7L900 101L900 0L885 0C870 0 840 0 810 0C780 0 750 0 720 0C690 0 660 0 630 0C600 0 570 0 540 0C510 0 480 0 450 0C420 0 390 0 360 0C330 0 300 0 270 0C240 0 210 0 180 0C150 0 120 0 90 0C60 0 30 0 15 0L0 0Z" fill="#5f4199"></path><path d="M0 57L15 64.2C30 71.3 60 85.7 90 91.2C120 96.7 150 93.3 180 94.3C210 95.3 240 100.7 270 99.3C300 98 330 90 360 85.5C390 81 420 80 450 84.7C480 89.3 510 99.7 540 96.7C570 93.7 600 77.3 630 73.8C660 70.3 690 79.7 720 79C750 78.3 780 67.7 810 62C840 56.3 870 55.7 885 55.3L900 55L900 0L885 0C870 0 840 0 810 0C780 0 750 0 720 0C690 0 660 0 630 0C600 0 570 0 540 0C510 0 480 0 450 0C420 0 390 0 360 0C330 0 300 0 270 0C240 0 210 0 180 0C150 0 120 0 90 0C60 0 30 0 15 0L0 0Z" fill="#4d2e8b"></path></svg>